
 
http://www.imdb.com/title/tt1704292/


[b]The adventures of young William Adama in the First Cylon War. 



Creators:
 David Eick, Michael Taylor

Stars:
 Luke Pasqualino, Ben Cotton, Jill Teed

Country:
USA 

Genres:
 Sci-Fi [/b]



Format                                   : AVI
Format/Info                              : Audio Video Interleave
File size                                : 699 MiB
Duration                                 : 1h 33mn
Overall bit rate mode                    : Variable
Overall bit rate                         : 1 046 Kbps

Video
ID                                       : 0
Format                                   : MPEG-4 Visual
Format profile                           : Advanced Simple@L5
Format settings, BVOP                    : 1
Format settings, QPel                    : No
Format settings, GMC                     : No warppoints
Format settings, Matrix                  : Default (H.263)
Codec ID                                 : XVID
Codec ID/Hint                            : XviD
Duration                                 : 1h 33mn
Bit rate                                 : 887 Kbps
Width                                    : 640 pixels
Height                                   : 352 pixels
Display aspect ratio                     : 16:9
Frame rate                               : 23.976 fps
Color space                              : YUV
Chroma subsampling                       : 4:2:0
Bit depth                                : 8 bits
Scan type                                : Progressive
Compression mode                         : Lossy
Bits/(Pixel*Frame)                       : 0.164
Stream size                              : 593 MiB (85%)
Writing library                          : XviD 64

Audio
ID                                       : 1
Format                                   : MPEG Audio
Format version                           : Version 1
Format profile                           : Layer 3
Mode                                     : Joint stereo
Mode extension                           : MS Stereo
Codec ID                                 : 55
Codec ID/Hint                            : MP3
Duration                                 : 1h 33mn
Bit rate mode                            : Variable
Bit rate                                 : 146 Kbps
Nominal bit rate                         : 160 Kbps
Channel(s)                               : 2 channels
Sampling rate                            : 48.0 KHz
Compression mode                         : Lossy
Stream size                              : 97.7 MiB (14%)
Alignment                                : Aligned on interleaves
Interleave, duration                     : 24 ms (0.58 video frame)
Interleave, preload duration             : 57 ms
Title                                    : bsg
Writing library                          : LAME3.99r
Encoding settings                        : -m j -V 4 -q 2 -lowpass 17.5 --abr 160


 
http://bayimg.com/MAJhNaAEk
 
http://bayimg.com/maJhpAaek
 
http://bayimg.com/najhBAaEk